<svg preserveAspectRatio="xMidYMid meet" viewBox="0 0 600 600" height="100%" width="100%" xmlns="http://www.w3.org/2000/svg"><g style="font-family: Helvetica, Arial, sans-serif;" transform="translate(300, 300)"><path stroke-width="1px" stroke="#fff" fill="#003a81" d="M125,-216.506A250,250,0,0,1,216.506,125L54.127,31.25A62.5,62.5,0,0,0,31.25,-54.127Z"></path><path stroke-width="1px" stroke="#fff" fill="#0075a9" d="M216.506,125A250,250,0,0,1,198.338,152.19L49.585,38.048A62.5,62.5,0,0,0,54.127,31.25Z"></path><path stroke-width="1px" stroke="#fff" fill="#df491c" d="M198.338,152.19A250,250,0,0,1,-95.671,230.97L-23.918,57.742A62.5,62.5,0,0,0,49.585,38.048Z"></path><path stroke-width="1px" stroke="#fff" fill="#ffc600" d="M-95.671,230.97A250,250,0,0,1,-230.97,-95.671L-57.742,-23.918A62.5,62.5,0,0,0,-23.918,57.742Z"></path><path stroke-width="1px" stroke="#fff" fill="#b0c4de" d="M-230.97,-95.671A250,250,0,0,1,-198.338,-152.19L-49.585,-38.048A62.5,62.5,0,0,0,-57.742,-23.918Z"></path><path stroke-width="1px" stroke="#fff" fill="#cd0010" d="M-198.338,-152.19A250,250,0,0,1,-152.19,-198.338L-38.048,-49.585A62.5,62.5,0,0,0,-49.585,-38.048Z"></path><path stroke-width="1px" stroke="#fff" fill="#708090" d="M-152.19,-198.338A250,250,0,0,1,-125,-216.506L-31.25,-54.127A62.5,62.5,0,0,0,-38.048,-49.585Z"></path><path stroke-width="1px" stroke="#fff" fill="#009944" d="M-125,-216.506A250,250,0,0,1,125,-216.506L31.25,-54.127A62.5,62.5,0,0,0,-31.25,-54.127Z"></path><text style="font-family: Helvetica, Arial, sans-serif;" fill="#fff" alignment-baseline="middle" text-anchor="middle" transform="translate(150.9259103576669,-40.44047579726889)">睡眠</text><text style="font-family: Helvetica, Arial, sans-serif;" fill="#fff" alignment-baseline="middle" text-anchor="middle" transform="translate(129.9171269222727,86.80784890931282)">朝食</text><text style="font-family: Helvetica, Arial, sans-serif;" fill="#fff" alignment-baseline="middle" text-anchor="middle" transform="translate(40.44047579726883,150.92591035766694)">研究室</text><text style="font-family: Helvetica, Arial, sans-serif;" fill="#fff" alignment-baseline="middle" text-anchor="middle" transform="translate(-144.35617695488858,59.794286307045226)">自由</text><text style="font-family: Helvetica, Arial, sans-serif;" fill="#fff" alignment-baseline="middle" text-anchor="middle" transform="translate(-135.31646934131854,-78.12500000000001)">風呂</text><text style="font-family: Helvetica, Arial, sans-serif;" fill="#fff" alignment-baseline="middle" text-anchor="middle" transform="translate(-110.48543456039808,-110.48543456039805)">夕食</text><text style="font-family: Helvetica, Arial, sans-serif;" fill="#fff" alignment-baseline="middle" text-anchor="middle" transform="translate(-86.80784890931284,-129.9171269222727)">ぶっ倒れ</text><text style="font-family: Helvetica, Arial, sans-serif;" fill="#fff" alignment-baseline="middle" text-anchor="middle" transform="translate(-2.870265935501609e-14,-156.25)">本・研究(家)</text><line stroke-width="1.5" stroke="#000" y2="-256" x2="1.567547902908612e-14" y1="-250" x1="1.5308084989341916e-14"></line><text fill="#000" alignment-baseline="middle" text-anchor="middle" y="-275" x="1.6838893488276108e-14">0時</text><line stroke-width="1.5" stroke="#000" y2="-247.2770115300015" x2="66.25767554624531" y1="-241.4814565722671" x1="64.70476127563019"></line><text fill="#000" alignment-baseline="middle" text-anchor="middle" y="-265.6296022294938" x="71.17523740319321">1時</text><line stroke-width="1.5" stroke="#000" y2="-221.7025033688163" x2="127.99999999999997" y1="-216.50635094610968" x1="124.99999999999997"></line><text fill="#000" alignment-baseline="middle" text-anchor="middle" y="-238.15698604072065" x="137.49999999999997">2時</text><line stroke-width="1.5" stroke="#000" y2="-181.01933598375615" x2="181.01933598375618" y1="-176.77669529663686" x1="176.7766952966369"></line><text fill="#000" alignment-baseline="middle" text-anchor="middle" y="-194.45436482630055" x="194.45436482630058">3時</text><line stroke-width="1.5" stroke="#000" y2="-128" x2="221.70250336881628" y1="-125" x1="216.50635094610965"></line><text fill="#000" alignment-baseline="middle" text-anchor="middle" y="-137.5" x="238.15698604072062">4時</text><line stroke-width="1.5" stroke="#000" y2="-66.2576755462453" x2="247.2770115300015" y1="-64.70476127563018" x1="241.4814565722671"></line><text fill="#000" alignment-baseline="middle" text-anchor="middle" y="-71.1752374031932" x="265.6296022294938">5時</text><line stroke-width="1.5" stroke="#000" y2="0" x2="256" y1="0" x1="250"></line><text fill="#000" alignment-baseline="middle" text-anchor="middle" y="0" x="275">6時</text><line stroke-width="1.5" stroke="#000" y2="66.25767554624535" x2="247.27701153000146" y1="64.70476127563023" x1="241.48145657226706"></line><text fill="#000" alignment-baseline="middle" text-anchor="middle" y="71.17523740319325" x="265.62960222949374">7時</text><line stroke-width="1.5" stroke="#000" y2="127.99999999999996" x2="221.7025033688163" y1="124.99999999999996" x1="216.50635094610968"></line><text fill="#000" alignment-baseline="middle" text-anchor="middle" y="137.49999999999994" x="238.15698604072065">8時</text><line stroke-width="1.5" stroke="#000" y2="181.01933598375615" x2="181.01933598375618" y1="176.77669529663686" x1="176.7766952966369"></line><text fill="#000" alignment-baseline="middle" text-anchor="middle" y="194.45436482630055" x="194.45436482630058">9時</text><line stroke-width="1.5" stroke="#000" y2="221.7025033688163" x2="127.99999999999997" y1="216.50635094610968" x1="124.99999999999997"></line><text fill="#000" alignment-baseline="middle" text-anchor="middle" y="238.15698604072065" x="137.49999999999997">10時</text><line stroke-width="1.5" stroke="#000" y2="247.27701153000146" x2="66.25767554624537" y1="241.48145657226706" x1="64.70476127563025"></line><text fill="#000" alignment-baseline="middle" text-anchor="middle" y="265.62960222949374" x="71.17523740319326">11時</text><line stroke-width="1.5" stroke="#000" y2="256" x2="1.567547902908612e-14" y1="250" x1="1.5308084989341916e-14"></line><text fill="#000" alignment-baseline="middle" text-anchor="middle" y="275" x="1.6838893488276108e-14">12時</text><line stroke-width="1.5" stroke="#000" y2="247.27701153000152" x2="-66.25767554624522" y1="241.4814565722671" x1="-64.7047612756301"></line><text fill="#000" alignment-baseline="middle" text-anchor="middle" y="265.6296022294938" x="-71.17523740319311">13時</text><line stroke-width="1.5" stroke="#000" y2="221.70250336881625" x2="-128.00000000000006" y1="216.50635094610962" x1="-125.00000000000006"></line><text fill="#000" alignment-baseline="middle" text-anchor="middle" y="238.1569860407206" x="-137.50000000000006">14時</text><line stroke-width="1.5" stroke="#000" y2="181.01933598375618" x2="-181.01933598375615" y1="176.7766952966369" x1="-176.77669529663686"></line><text fill="#000" alignment-baseline="middle" text-anchor="middle" y="194.45436482630058" x="-194.45436482630055">15時</text><line stroke-width="1.5" stroke="#000" y2="128.00000000000009" x2="-221.70250336881625" y1="125.00000000000009" x1="-216.50635094610962"></line><text fill="#000" alignment-baseline="middle" text-anchor="middle" y="137.50000000000009" x="-238.1569860407206">16時</text><line stroke-width="1.5" stroke="#000" y2="66.25767554624527" x2="-247.2770115300015" y1="64.70476127563015" x1="-241.4814565722671"></line><text fill="#000" alignment-baseline="middle" text-anchor="middle" y="71.17523740319315" x="-265.6296022294938">17時</text><line stroke-width="1.5" stroke="#000" y2="3.135095805817224e-14" x2="-256" y1="3.061616997868383e-14" x1="-250"></line><text fill="#000" alignment-baseline="middle" text-anchor="middle" y="3.3677786976552216e-14" x="-275">18時</text><line stroke-width="1.5" stroke="#000" y2="-66.25767554624521" x2="-247.27701153000152" y1="-64.70476127563009" x1="-241.4814565722671"></line><text fill="#000" alignment-baseline="middle" text-anchor="middle" y="-71.1752374031931" x="-265.6296022294938">19時</text><line stroke-width="1.5" stroke="#000" y2="-128.00000000000003" x2="-221.70250336881628" y1="-125.00000000000003" x1="-216.50635094610965"></line><text fill="#000" alignment-baseline="middle" text-anchor="middle" y="-137.50000000000003" x="-238.15698604072062">20時</text><line stroke-width="1.5" stroke="#000" y2="-181.01933598375615" x2="-181.0193359837562" y1="-176.77669529663686" x1="-176.77669529663692"></line><text fill="#000" alignment-baseline="middle" text-anchor="middle" y="-194.45436482630055" x="-194.4543648263006">21時</text><line stroke-width="1.5" stroke="#000" y2="-221.70250336881622" x2="-128.0000000000001" y1="-216.5063509461096" x1="-125.00000000000011"></line><text fill="#000" alignment-baseline="middle" text-anchor="middle" y="-238.15698604072054" x="-137.5000000000001">22時</text><line stroke-width="1.5" stroke="#000" y2="-247.2770115300015" x2="-66.25767554624528" y1="-241.4814565722671" x1="-64.70476127563016"></line><text fill="#000" alignment-baseline="middle" text-anchor="middle" y="-265.6296022294938" x="-71.17523740319318">23時</text></g></svg>